<?xml version="1.0" encoding="utf-8"?>
<!-- Generator: Adobe Illustrator 26.2.1, SVG Export Plug-In . SVG Version: 6.00 Build 0)  -->
<svg version="1.1" id="Laag_1" xmlns="http://www.w3.org/2000/svg" xmlns:xlink="http://www.w3.org/1999/xlink" x="0px" y="0px"
	 viewBox="0 0 190 190" style="enable-background:new 0 0 190 190;" xml:space="preserve">
<style type="text/css">
	.st0{fill:#00FF00;}
	.st1{fill:none;stroke:#00FF00;stroke-miterlimit:10;}
</style>
<g>
	<g>
		<path class="st0" d="M80.6,1v27.7h-51h-1v1v51H1V26.1C1,12.3,12.3,1,26.1,1H80.6 M81.6,0H26.1C11.7,0,0,11.7,0,26.1v55.5h29.7v-52
			h52V0L81.6,0z"/>
	</g>
	<path class="st1" d="M116.3,95c0,11.8-9.5,21.3-21.3,21.3c-11.8,0-21.3-9.5-21.3-21.3c0-11.8,9.5-21.3,21.3-21.3
		C106.8,73.7,116.3,83.2,116.3,95"/>
	<path class="st1" d="M163.9,0h-55.5v29.7h52v52H190V26.1C190,11.7,178.3,0,163.9,0"/>
	<g>
		<path class="st0" d="M189,109.3v54.5c0,13.8-11.3,25.1-25.1,25.1h-54.5v-27.7h51h1v-1v-51H189 M190,108.3h-29.7v0v52h-52V190h55.5
			c14.4,0,26.1-11.7,26.1-26.1V108.3L190,108.3z"/>
	</g>
	<g>
		<path class="st0" d="M28.7,109.3v51v1h1h51V189H26.1C12.3,189,1,177.7,1,163.9v-54.5H28.7 M29.7,108.3H0v55.5
			C0,178.3,11.7,190,26.1,190h55.5v-29.7h-52v0V108.3L29.7,108.3z"/>
	</g>
</g>
</svg>
