<?xml version="1.0" encoding="utf-8"?>
<!-- Generator: Adobe Illustrator 26.1.0, SVG Export Plug-In . SVG Version: 6.00 Build 0)  -->
<svg version="1.1" id="Laag_1" xmlns="http://www.w3.org/2000/svg" xmlns:xlink="http://www.w3.org/1999/xlink" x="0px" y="0px"
	 viewBox="0 0 1133.86 263" style="enable-background:new 0 0 1133.86 263;" xml:space="preserve">
<style type="text/css">
	.st0{fill:#FFFFFF;}
	.st1{fill:#00FF00;}
</style>
<path class="st0" d="M243.1,185.12V79.38h-25.1v57.7c0,7.29-1,13.28-2.98,17.82c-3.95,8.67-11.29,13.06-21.85,13.06
	c-8.41,0-14.18-3.2-17.13-9.5c-1.59-3.4-2.39-8.43-2.39-14.93V79.38h-25.41v64.14c0,12.19,1.52,21.48,4.52,27.62
	c5.24,10.88,15.64,16.39,30.93,16.39c5.37,0,10.09-0.7,14.04-2.1c3.91-1.38,8.07-4.03,12.34-7.87c1.33-1.15,2.49-2.49,3.45-4
	c1.13-1.77,1.81-2.79,2.13-3.19l3.55-4.45v19.2H243.1z"/>
<path class="st0" d="M325.14,101.88c0.9,0,2.05,0.03,3.52,0.1c0.85,0.04,1.77,0.11,2.75,0.19V76.86c-0.29-0.02-0.51-0.04-0.66-0.05
	c-0.31-0.03-0.7-0.04-1.17-0.04c-8.07,0-14.69,2.11-19.66,6.28c-3.11,2.53-6.85,7.41-11.14,14.5l-3.69,6.1V79.39h-23.4v105.73h24.9
	v-50.45c0-9.07,1.2-15.96,3.55-20.45C304.44,106.03,312.86,101.88,325.14,101.88"/>
<rect x="355.58" y="76.77" class="st0" width="25.1" height="108.35"/>
<path class="st0" d="M550.82,146.93c-5.59,11.12-17.15,18.28-29.62,18.28c-18.27,0-33.13-14.86-33.13-33.13s14.86-33.13,33.13-33.13
	c12.46,0,24.02,7.16,29.62,18.28l19.86-11.47c-9.76-18.35-28.67-29.72-49.48-29.72c-30.89,0-56.03,25.14-56.03,56.04
	s25.14,56.04,56.03,56.04c20.81,0,39.72-11.38,49.48-29.72L550.82,146.93z"/>
<path class="st0" d="M638.11,164.47c-17.86,0-32.38-14.53-32.38-32.38c0-17.85,14.53-32.38,32.38-32.38s32.38,14.53,32.38,32.38
	C670.49,149.94,655.97,164.47,638.11,164.47 M638.11,76.3c-30.76,0-55.78,25.02-55.78,55.78s25.02,55.79,55.78,55.79
	s55.78-25.03,55.78-55.79S668.87,76.3,638.11,76.3"/>
<path class="st0" d="M820.86,97.35c7.63,0,12.97,2.95,15.87,8.75c1.47,2.95,2.22,6.7,2.22,11.15v67.86h25.42l0.19-67.16
	c0-6.95-0.33-12.28-0.97-15.84c-1.01-5.2-2.97-9.65-5.83-13.2c-3.59-4.41-7.62-7.53-11.97-9.27c-4.44-1.78-9-2.68-13.55-2.68
	c-6.9,0-13.22,1.45-18.8,4.3c-5.2,2.82-9.64,7.34-13.2,13.43l-2.05,3.52l-1.52-3.79c-2.01-5.03-4.98-9.18-8.84-12.35
	c-4.75-3.39-11.18-5.11-19.11-5.11c-8.36,0-15.23,2.03-20.43,6.03c-2.95,2.26-6.17,6.18-9.59,11.65l-3.68,5.91V79.59h-23.9v105.53
	h25.1v-64.04c0-6.26,0.85-11.11,2.54-14.41c3.18-5.99,9.33-9.03,18.27-9.03c7.86,0,13.25,3.07,16,9.12
	c1.48,3.25,2.19,8.16,2.19,15.02v63.33h24.91v-63.33c0-5.16,0.84-9.67,2.49-13.4C806,101.06,812.13,97.35,820.86,97.35"/>
<path class="st0" d="M78.61,75.24c-32.97,0-55.12,22.87-55.12,56.91c0,33.62,22.67,57.11,55.12,57.11c7.33,0,14.32-1.24,20.68-3.6
	c11.94-4.42,21.58-11.57,26.85-23.16l0.83-1.82H103.6h-0.43c-6.07,7.26-14.1,8.85-24.56,8.85c-16.59,0-28.7-10.67-30.83-27.19
	l-0.17-1.33h83.89l0.1-0.69c0.5-3.34,0.73-6.76,0.73-10.77C132.33,97.58,110.24,75.24,78.61,75.24z M47.82,122.09l0.25-1.4
	c2.84-15.62,14.44-25.72,29.54-25.72c16.73,0,29.2,10.63,30.34,25.84l0.09,1.28H47.82z"/>
<path class="st1" d="M951.03,66.58h51.65V37.09H947.5c-14.34,0-25.95,11.62-25.95,25.95v55.18h29.49V66.58z"/>
<path class="st1" d="M1037.13,131.5c0,11.69-9.48,21.17-21.17,21.17s-21.18-9.48-21.18-21.17s9.48-21.17,21.18-21.17
	S1037.13,119.81,1037.13,131.5"/>
<path class="st1" d="M1084.42,37.09h-55.18v29.49h51.65v51.65h29.49V63.04C1110.37,48.7,1098.75,37.09,1084.42,37.09"/>
<path class="st1" d="M1080.89,144.78v51.65h-51.65v29.49h55.18c14.34,0,25.95-11.62,25.95-25.95v-55.18H1080.89z"/>
<path class="st1" d="M951.03,196.43v-51.65h-29.49v55.18c0,14.34,11.62,25.95,25.95,25.95h55.18v-29.49H951.03z"/>
<path class="st0" d="M443.82,171c0,7.79-6.32,14.12-14.12,14.12c-7.8,0-14.12-6.32-14.12-14.12c0-7.8,6.32-14.12,14.12-14.12
	C437.5,156.88,443.82,163.2,443.82,171"/>
</svg>
