<?xml version="1.0" encoding="utf-8"?>
<!-- Generator: Adobe Illustrator 26.2.1, SVG Export Plug-In . SVG Version: 6.00 Build 0)  -->
<svg version="1.1" id="Laag_1" xmlns="http://www.w3.org/2000/svg" xmlns:xlink="http://www.w3.org/1999/xlink" x="0px" y="0px"
	 viewBox="0 0 190 190" style="enable-background:new 0 0 190 190;" xml:space="preserve">
<style type="text/css">
	.st0{fill:#00FF00;}
</style>
<g>
	<path class="st0" d="M29.7,29.7h52V0H26.1C11.7,0,0,11.7,0,26.1v55.5h29.7V29.7z"/>
	<path class="st0" d="M116.3,95c0,11.8-9.5,21.3-21.3,21.3c-11.8,0-21.3-9.5-21.3-21.3c0-11.8,9.5-21.3,21.3-21.3
		C106.8,73.7,116.3,83.2,116.3,95"/>
	<path class="st0" d="M163.9,0h-55.5v29.7h52v52H190V26.1C190,11.7,178.3,0,163.9,0"/>
	<path class="st0" d="M160.3,108.3v52h-52V190h55.5c14.4,0,26.1-11.7,26.1-26.1v-55.5L160.3,108.3L160.3,108.3z"/>
	<path class="st0" d="M29.7,160.3v-52H0v55.5C0,178.3,11.7,190,26.1,190h55.5v-29.7L29.7,160.3L29.7,160.3z"/>
</g>
</svg>
