<?xml version="1.0" encoding="utf-8"?>
<!-- Generator: Adobe Illustrator 26.1.0, SVG Export Plug-In . SVG Version: 6.00 Build 0)  -->
<svg version="1.1" id="Laag_1" xmlns="http://www.w3.org/2000/svg" xmlns:xlink="http://www.w3.org/1999/xlink" x="0px" y="0px"
	 viewBox="0 0 1133.86 263" style="enable-background:new 0 0 1133.86 263;" xml:space="preserve">
<style type="text/css">
	.st0{fill:#00FF00;}
	.st1{fill:#1D1D1B;}
</style>
<path class="st0" d="M611.34,35.34h35.51V15.07h-37.94c-9.86,0-17.84,7.99-17.84,17.84v37.94h20.27V35.34z"/>
<path class="st0" d="M670.53,79.98c0,8.04-6.52,14.55-14.55,14.55c-8.04,0-14.56-6.52-14.56-14.55c0-8.04,6.52-14.55,14.56-14.55
	C664.02,65.42,670.53,71.94,670.53,79.98"/>
<path class="st0" d="M703.04,15.07h-37.94v20.27h35.51v35.51h20.27V32.91C720.89,23.06,712.9,15.07,703.04,15.07"/>
<path class="st0" d="M700.61,89.11v35.51H665.1v20.27h37.94c9.86,0,17.84-7.99,17.84-17.84V89.11H700.61z"/>
<path class="st0" d="M611.34,124.61V89.11h-20.27v37.94c0,9.86,7.99,17.84,17.84,17.84h37.94v-20.27H611.34z"/>
<path class="st1" d="M168.99,122.84V50.15h-17.26v39.67c0,5.01-0.69,9.13-2.05,12.25c-2.71,5.96-7.76,8.98-15.02,8.98
	c-5.78,0-9.75-2.2-11.77-6.53c-1.09-2.34-1.64-5.8-1.64-10.27v-44.1h-17.47v44.1c0,8.38,1.05,14.77,3.11,18.99
	c3.6,7.48,10.75,11.27,21.26,11.27c3.69,0,6.94-0.48,9.65-1.44c2.69-0.95,5.55-2.77,8.49-5.41c0.91-0.79,1.71-1.71,2.37-2.75
	c0.78-1.22,1.25-1.92,1.47-2.2l2.44-3.06v13.2H168.99z"/>
<path class="st1" d="M225.39,65.62c0.62,0,1.41,0.02,2.42,0.07c0.58,0.03,1.22,0.07,1.89,0.13v-17.4c-0.2-0.01-0.35-0.03-0.45-0.03
	c-0.21-0.02-0.48-0.03-0.81-0.03c-5.55,0-10.1,1.45-13.52,4.32c-2.14,1.74-4.71,5.09-7.66,9.97l-2.54,4.2V50.16h-16.08v72.69h17.12
	V88.16c0-6.24,0.82-10.97,2.44-14.06C211.16,68.47,216.95,65.62,225.39,65.62"/>
<rect x="246.32" y="50.16" class="st1" width="17.26" height="72.69"/>
<path class="st1" d="M336.2,96.59c-3.84,7.65-11.79,12.57-20.36,12.57c-12.56,0-22.78-10.22-22.78-22.78
	c0-12.56,10.22-22.78,22.78-22.78c8.57,0,16.52,4.92,20.36,12.57l13.66-7.88c-6.71-12.61-19.71-20.43-34.02-20.43
	c-21.24,0-38.52,17.28-38.52,38.53c0,21.24,17.28,38.53,38.52,38.53c14.31,0,27.31-7.82,34.02-20.43L336.2,96.59z"/>
<path class="st1" d="M396.21,48.03c-21.15,0-38.35,17.2-38.35,38.35c0,21.15,17.2,38.36,38.35,38.36
	c21.15,0,38.35-17.21,38.35-38.36C434.56,65.24,417.35,48.03,396.21,48.03 M396.21,108.65c-12.28,0-22.26-9.99-22.26-22.26
	c0-12.27,9.99-22.26,22.26-22.26c12.28,0,22.26,9.99,22.26,22.26C418.47,98.66,408.48,108.65,396.21,108.65"/>
<path class="st1" d="M521.85,62.5c5.24,0,8.91,2.03,10.91,6.02c1.01,2.03,1.53,4.61,1.53,7.67v46.66h17.47l0.13-46.17
	c0-4.78-0.23-8.44-0.67-10.89c-0.69-3.58-2.04-6.63-4.01-9.07c-2.47-3.03-5.24-5.17-8.23-6.37c-3.05-1.22-6.19-1.84-9.32-1.84
	c-4.74,0-9.09,0.99-12.93,2.96c-3.57,1.94-6.63,5.04-9.07,9.24l-1.41,2.42l-1.04-2.61c-1.38-3.46-3.43-6.31-6.08-8.49
	c-3.26-2.33-7.69-3.51-13.14-3.51c-5.75,0-10.47,1.39-14.04,4.14c-2.03,1.55-4.24,4.25-6.59,8.01l-2.53,4.06V50.29h-16.43v72.55
	h17.26V78.82c0-4.31,0.59-7.64,1.75-9.9c2.19-4.12,6.42-6.21,12.56-6.21c5.41,0,9.11,2.11,11,6.27c1.02,2.23,1.51,5.61,1.51,10.33
	v43.54h17.12V79.3c0-3.54,0.58-6.65,1.71-9.21C511.63,65.06,515.85,62.5,521.85,62.5"/>
<path class="st1" d="M34.73,79.51l0.17-0.96c1.95-10.74,9.93-17.68,20.31-17.68c11.5,0,20.08,7.31,20.86,17.77l0.06,0.88H34.73z
	 M55.9,47.31C33.24,47.31,18,63.03,18,86.43c0,23.12,15.58,39.26,37.9,39.26c5.04,0,9.85-0.86,14.22-2.47
	c8.21-3.04,14.83-7.95,18.46-15.92l0.57-1.25H73.08h-0.3c-4.17,4.99-9.69,6.08-16.89,6.08c-11.41,0-19.73-7.34-21.2-18.69
	l-0.12-0.92h57.68l0.07-0.47c0.34-2.3,0.5-4.65,0.5-7.4C92.83,62.66,77.65,47.31,55.9,47.31"/>
<path class="st1" d="M264.66,30.69c0,5.36-4.35,9.71-9.71,9.71c-5.36,0-9.71-4.35-9.71-9.71c0-5.36,4.35-9.71,9.71-9.71
	C260.31,20.99,264.66,25.33,264.66,30.69"/>
<path class="st1" d="M564.34,216.86l-5.88,21.66h4.91l9.02-21.66H564.34z M548.16,201.72h-27.86c0.38-4.19,1.86-7.46,4.47-9.82
	c2.6-2.36,5.76-3.54,9.46-3.54c2.58,0,4.92,0.52,7.04,1.57c2.12,1.05,3.8,2.58,5.03,4.59C547.55,196.53,548.16,198.93,548.16,201.72
	 M555.73,203.25c0-4.03-0.87-7.63-2.62-10.83c-1.74-3.19-4.23-5.7-7.45-7.53c-3.22-1.82-6.92-2.74-11.11-2.74
	c-4.29,0-8.09,0.93-11.39,2.78c-3.3,1.85-5.86,4.5-7.69,7.93c-1.83,3.44-2.74,7.43-2.74,12c0,4.56,0.94,8.57,2.82,12.04
	c1.88,3.46,4.47,6.13,7.77,8.01c3.3,1.88,7.04,2.82,11.23,2.82c5.26,0,9.66-1.33,13.2-3.99c3.54-2.66,5.9-6.1,7.08-10.35h-7.89
	c-0.86,2.47-2.35,4.44-4.47,5.92c-2.12,1.48-4.76,2.21-7.93,2.21c-3.86,0-7.15-1.22-9.86-3.66c-2.71-2.44-4.2-5.84-4.47-10.18h35.26
	C555.65,206.12,555.73,204.65,555.73,203.25 M494.15,190.05v-7.17h-7.33V227h7.33v-23.99c0-8.91,4.11-13.36,12.32-13.36h1.93v-7.57
	c-3.44,0-6.35,0.7-8.74,2.09C497.28,185.57,495.44,187.52,494.15,190.05 M467.44,204.86c0,3.33-0.67,6.24-2.01,8.74
	c-1.34,2.5-3.15,4.4-5.43,5.72c-2.28,1.32-4.79,1.97-7.53,1.97s-5.23-0.66-7.49-1.97c-2.25-1.31-4.05-3.22-5.39-5.72
	c-1.34-2.5-2.01-5.43-2.01-8.82c0-3.33,0.67-6.23,2.01-8.7c1.34-2.47,3.14-4.35,5.39-5.64s4.75-1.93,7.49-1.93s5.25,0.66,7.53,1.97
	c2.28,1.32,4.09,3.21,5.43,5.68C466.77,198.63,467.44,201.53,467.44,204.86 M430.08,204.78c0,4.46,0.91,8.43,2.74,11.92
	c1.82,3.49,4.32,6.2,7.49,8.13c3.17,1.93,6.71,2.9,10.63,2.9c3.81,0,7.15-0.85,10.02-2.54c2.87-1.69,5.03-3.82,6.48-6.4V227h7.41
	v-44.12h-7.41v8.05c-1.4-2.52-3.52-4.62-6.36-6.28c-2.85-1.66-6.2-2.5-10.06-2.5c-3.92,0-7.47,0.94-10.67,2.82
	c-3.19,1.88-5.7,4.52-7.53,7.93C431,196.31,430.08,200.27,430.08,204.78 M419.46,182.88L409.48,220l-10.71-37.11h-7.49l-10.95,37.03
	l-10.14-37.03h-7.49L376.55,227h7.57l10.63-35.02L405.38,227h7.57l13.77-44.12H419.46z M357.43,188.92v-6.04h-11.51v-11.11h-7.33
	v11.11h-5.72v6.04h5.72v26c0,4.29,1.02,7.38,3.06,9.26c2.04,1.88,5.1,2.82,9.18,2.82h6.6v-6.2h-5.39c-2.25,0-3.84-0.44-4.75-1.33
	c-0.91-0.89-1.37-2.4-1.37-4.55v-26H357.43z M327.24,182.88h-9.26v-3.14c0-2.9,0.66-4.98,1.97-6.24c1.31-1.26,3.58-1.89,6.8-1.89
	v-6.12c-5.64,0-9.73,1.14-12.28,3.42c-2.55,2.28-3.82,5.89-3.82,10.83v3.14h-5.72v6.04h5.72V227h7.33v-38.08h9.26V182.88z
	 M277.79,221.28c-2.63,0-5.05-0.6-7.25-1.81c-2.2-1.21-3.96-3.05-5.27-5.51c-1.32-2.47-1.97-5.5-1.97-9.1
	c0-3.54,0.67-6.55,2.01-9.02c1.34-2.47,3.13-4.31,5.35-5.51c2.23-1.21,4.68-1.81,7.37-1.81c2.63,0,5.07,0.6,7.33,1.81
	c2.25,1.21,4.08,3.05,5.47,5.51c1.39,2.47,2.09,5.47,2.09,9.02c0,3.54-0.71,6.55-2.13,9.02c-1.42,2.47-3.29,4.32-5.6,5.56
	C282.89,220.67,280.42,221.28,277.79,221.28 M277.79,227.72c4.19,0,8-0.94,11.43-2.82c3.43-1.88,6.16-4.55,8.17-8.01
	c2.01-3.46,3.02-7.47,3.02-12.04c0-4.56-0.98-8.56-2.94-12c-1.96-3.43-4.63-6.08-8.01-7.93c-3.38-1.85-7.17-2.78-11.35-2.78
	c-4.19,0-7.97,0.93-11.35,2.78c-3.38,1.85-6.05,4.51-8.01,7.97c-1.96,3.46-2.94,7.45-2.94,11.96c0,4.56,0.95,8.57,2.86,12.04
	c1.9,3.46,4.53,6.13,7.89,8.01C269.92,226.79,273.66,227.72,277.79,227.72 M232.68,227.72c3.17,0,5.97-0.55,8.41-1.65
	c2.44-1.1,4.33-2.62,5.68-4.55c1.34-1.93,2.01-4.11,2.01-6.52c-0.05-2.68-0.79-4.86-2.21-6.52c-1.42-1.66-3.13-2.91-5.11-3.74
	c-1.99-0.83-4.56-1.68-7.73-2.54c-2.52-0.7-4.5-1.33-5.92-1.89c-1.42-0.56-2.6-1.31-3.54-2.25c-0.94-0.94-1.41-2.13-1.41-3.58
	c0-1.82,0.78-3.3,2.33-4.43c1.56-1.13,3.65-1.69,6.28-1.69c2.84,0,5.11,0.7,6.8,2.09c1.69,1.4,2.62,3.25,2.78,5.56h7.33
	c-0.22-4.29-1.83-7.67-4.83-10.14c-3.01-2.47-6.95-3.7-11.83-3.7c-3.17,0-5.99,0.55-8.45,1.65c-2.47,1.1-4.38,2.59-5.72,4.47
	c-1.34,1.88-2.01,3.94-2.01,6.2c0,2.85,0.74,5.14,2.21,6.88c1.48,1.75,3.25,3.06,5.31,3.95c2.07,0.89,4.74,1.76,8.01,2.62
	c3.6,0.91,6.25,1.84,7.97,2.78c1.72,0.94,2.58,2.37,2.58,4.31c0,1.88-0.81,3.44-2.42,4.67c-1.61,1.24-3.81,1.85-6.6,1.85
	c-3.01,0-5.43-0.7-7.29-2.09c-1.85-1.4-2.89-3.19-3.1-5.39h-7.57c0.16,2.68,1.02,5.06,2.58,7.12c1.56,2.07,3.68,3.68,6.36,4.83
	C226.26,227.15,229.3,227.72,232.68,227.72 M177.16,190.05v-7.17h-7.33V227h7.33v-23.99c0-8.91,4.11-13.36,12.32-13.36h1.93v-7.57
	c-3.44,0-6.35,0.7-8.74,2.09C180.29,185.57,178.45,187.52,177.16,190.05 M150.57,182.88v24.23c0,4.62-1.13,8.13-3.38,10.55
	c-2.25,2.42-5.34,3.62-9.26,3.62c-3.81,0-6.82-1.17-9.02-3.5c-2.2-2.33-3.3-5.68-3.3-10.02v-24.88h-7.25v25.84
	c0,4.08,0.79,7.54,2.37,10.39c1.58,2.85,3.74,4.98,6.48,6.4c2.74,1.42,5.82,2.13,9.26,2.13c3.01,0,5.76-0.63,8.25-1.89
	c2.5-1.26,4.44-3.02,5.84-5.27V227h7.33v-44.12H150.57z M86.83,221.28c-2.63,0-5.05-0.6-7.25-1.81c-2.2-1.21-3.96-3.05-5.27-5.51
	c-1.32-2.47-1.97-5.5-1.97-9.1c0-3.54,0.67-6.55,2.01-9.02c1.34-2.47,3.13-4.31,5.35-5.51c2.23-1.21,4.68-1.81,7.37-1.81
	c2.63,0,5.07,0.6,7.33,1.81c2.25,1.21,4.08,3.05,5.47,5.51c1.39,2.47,2.09,5.47,2.09,9.02c0,3.54-0.71,6.55-2.13,9.02
	c-1.42,2.47-3.29,4.32-5.6,5.56C91.93,220.67,89.46,221.28,86.83,221.28 M86.83,227.72c4.19,0,8-0.94,11.43-2.82
	c3.43-1.88,6.16-4.55,8.17-8.01c2.01-3.46,3.02-7.47,3.02-12.04c0-4.56-0.98-8.56-2.94-12c-1.96-3.43-4.63-6.08-8.01-7.93
	c-3.38-1.85-7.17-2.78-11.35-2.78s-7.97,0.93-11.35,2.78c-3.38,1.85-6.05,4.51-8.01,7.97c-1.96,3.46-2.94,7.45-2.94,11.96
	c0,4.56,0.95,8.57,2.86,12.04c1.9,3.46,4.53,6.13,7.89,8.01C78.95,226.79,82.7,227.72,86.83,227.72 M54.64,182.88l-13.69,35.75
	L27.1,182.88h-8.13l17.79,43.64l-8.7,21.25h7.57l26.57-64.89H54.64z"/>
<path class="st1" d="M1111.02,227.48c1.34,0,2.48-0.48,3.42-1.45c0.94-0.97,1.41-2.15,1.41-3.54c0-1.4-0.47-2.58-1.41-3.54
	c-0.94-0.97-2.08-1.45-3.42-1.45c-1.4,0-2.58,0.48-3.54,1.45c-0.97,0.97-1.45,2.15-1.45,3.54c0,1.4,0.48,2.58,1.45,3.54
	C1108.45,227,1109.63,227.48,1111.02,227.48 M1092.17,201.72h-27.86c0.38-4.19,1.86-7.46,4.47-9.82c2.6-2.36,5.76-3.54,9.46-3.54
	c2.58,0,4.92,0.52,7.04,1.57c2.12,1.05,3.8,2.58,5.03,4.59C1091.55,196.53,1092.17,198.93,1092.17,201.72 M1099.74,203.25
	c0-4.03-0.87-7.63-2.62-10.83c-1.74-3.19-4.23-5.7-7.45-7.53c-3.22-1.82-6.92-2.74-11.11-2.74c-4.29,0-8.09,0.93-11.39,2.78
	c-3.3,1.85-5.86,4.5-7.69,7.93c-1.83,3.44-2.74,7.43-2.74,12c0,4.56,0.94,8.57,2.82,12.04c1.88,3.46,4.47,6.13,7.77,8.01
	c3.3,1.88,7.04,2.82,11.23,2.82c5.26,0,9.66-1.33,13.2-3.99c3.54-2.66,5.9-6.1,7.08-10.35h-7.89c-0.86,2.47-2.35,4.44-4.47,5.92
	c-2.12,1.48-4.76,2.21-7.93,2.21c-3.86,0-7.15-1.22-9.86-3.66c-2.71-2.44-4.2-5.84-4.47-10.18h35.26
	C1099.66,206.12,1099.74,204.65,1099.74,203.25 M1033.61,227.72c3.17,0,5.97-0.55,8.41-1.65c2.44-1.1,4.33-2.62,5.68-4.55
	c1.34-1.93,2.01-4.11,2.01-6.52c-0.05-2.68-0.79-4.86-2.21-6.52c-1.42-1.66-3.13-2.91-5.11-3.74c-1.99-0.83-4.56-1.68-7.73-2.54
	c-2.52-0.7-4.5-1.33-5.92-1.89c-1.42-0.56-2.6-1.31-3.54-2.25c-0.94-0.94-1.41-2.13-1.41-3.58c0-1.82,0.78-3.3,2.33-4.43
	c1.56-1.13,3.65-1.69,6.28-1.69c2.84,0,5.11,0.7,6.8,2.09c1.69,1.4,2.62,3.25,2.78,5.56h7.33c-0.22-4.29-1.83-7.67-4.83-10.14
	c-3.01-2.47-6.95-3.7-11.83-3.7c-3.17,0-5.99,0.55-8.45,1.65c-2.47,1.1-4.38,2.59-5.72,4.47c-1.34,1.88-2.01,3.94-2.01,6.2
	c0,2.85,0.74,5.14,2.21,6.88c1.48,1.74,3.25,3.06,5.31,3.94c2.07,0.89,4.74,1.76,8.01,2.62c3.6,0.91,6.25,1.84,7.97,2.78
	c1.72,0.94,2.58,2.38,2.58,4.31c0,1.88-0.81,3.44-2.42,4.67c-1.61,1.24-3.81,1.85-6.6,1.85c-3.01,0-5.43-0.7-7.29-2.09
	c-1.85-1.39-2.89-3.19-3.1-5.39h-7.57c0.16,2.68,1.02,5.06,2.58,7.12c1.56,2.07,3.68,3.68,6.36,4.83
	C1027.19,227.15,1030.23,227.72,1033.61,227.72 M998.57,182.88V227h7.33v-44.12H998.57z M1002.36,175.72c1.34,0,2.48-0.48,3.42-1.45
	c0.94-0.97,1.41-2.15,1.41-3.54c0-1.39-0.47-2.58-1.41-3.54c-0.94-0.97-2.08-1.45-3.42-1.45c-1.4,0-2.58,0.48-3.54,1.45
	c-0.97,0.97-1.45,2.15-1.45,3.54c0,1.4,0.48,2.58,1.45,3.54C999.78,175.23,1000.96,175.72,1002.36,175.72 M990.69,188.92v-6.04
	h-11.51v-11.11h-7.33v11.11h-5.72v6.04h5.72v26c0,4.29,1.02,7.38,3.06,9.26c2.04,1.88,5.1,2.82,9.18,2.82h6.6v-6.2h-5.39
	c-2.25,0-3.84-0.44-4.75-1.33c-0.91-0.89-1.37-2.4-1.37-4.55v-26H990.69z M946.25,190.05v-7.17h-7.33V227h7.33v-23.99
	c0-8.91,4.11-13.36,12.32-13.36h1.93v-7.57c-3.44,0-6.35,0.7-8.74,2.09C949.38,185.57,947.54,187.52,946.25,190.05 M921.82,201.72
	h-27.86c0.37-4.19,1.86-7.46,4.47-9.82c2.6-2.36,5.76-3.54,9.46-3.54c2.58,0,4.92,0.52,7.04,1.57c2.12,1.05,3.8,2.58,5.03,4.59
	C921.21,196.53,921.82,198.93,921.82,201.72 M929.39,203.25c0-4.03-0.87-7.63-2.62-10.83c-1.74-3.19-4.23-5.7-7.45-7.53
	c-3.22-1.82-6.92-2.74-11.11-2.74c-4.29,0-8.09,0.93-11.39,2.78c-3.3,1.85-5.86,4.5-7.69,7.93c-1.83,3.44-2.74,7.43-2.74,12
	c0,4.56,0.94,8.57,2.82,12.04c1.88,3.46,4.47,6.13,7.77,8.01c3.3,1.88,7.04,2.82,11.23,2.82c5.26,0,9.66-1.33,13.2-3.99
	c3.54-2.66,5.9-6.1,7.09-10.35h-7.89c-0.86,2.47-2.35,4.44-4.47,5.92c-2.12,1.48-4.76,2.21-7.93,2.21c-3.86,0-7.15-1.22-9.86-3.66
	c-2.71-2.44-4.2-5.84-4.47-10.18h35.26C929.31,206.12,929.39,204.65,929.39,203.25 M871.84,204.78c0,3.38-0.67,6.32-2.01,8.82
	c-1.34,2.5-3.15,4.4-5.43,5.72c-2.28,1.32-4.79,1.97-7.53,1.97c-2.68,0-5.17-0.66-7.45-1.97c-2.28-1.31-4.11-3.22-5.47-5.72
	c-1.37-2.5-2.05-5.41-2.05-8.74c0-3.27,0.68-6.16,2.05-8.65c1.37-2.5,3.19-4.4,5.47-5.72c2.28-1.31,4.76-1.97,7.45-1.97
	c2.74,0,5.25,0.64,7.53,1.93c2.28,1.29,4.09,3.17,5.43,5.64C871.16,198.55,871.84,201.45,871.84,204.78 M841.89,191.01v-8.13h-7.33
	v65.05h7.33v-29.06c1.5,2.52,3.69,4.63,6.56,6.32c2.87,1.69,6.19,2.54,9.94,2.54c3.92,0,7.47-0.97,10.67-2.9
	c3.19-1.93,5.7-4.64,7.53-8.13c1.82-3.49,2.74-7.46,2.74-11.92c0-4.51-0.91-8.47-2.74-11.87c-1.83-3.41-4.33-6.05-7.53-7.93
	c-3.19-1.88-6.75-2.82-10.67-2.82c-3.81,0-7.15,0.85-10.02,2.54C845.5,186.38,843.34,188.49,841.89,191.01 M827.49,227l-14.25-22.3
	l14.17-21.82h-7.65l-9.98,16.34l-10.47-16.34h-8.29l14.25,22.22L791.01,227h7.65l10.06-16.42L819.19,227H827.49z M780.11,201.72
	h-27.86c0.38-4.19,1.86-7.46,4.47-9.82c2.6-2.36,5.76-3.54,9.46-3.54c2.58,0,4.92,0.52,7.04,1.57c2.12,1.05,3.8,2.58,5.03,4.59
	C779.5,196.53,780.11,198.93,780.11,201.72 M787.68,203.25c0-4.03-0.87-7.63-2.62-10.83c-1.74-3.19-4.23-5.7-7.45-7.53
	c-3.22-1.82-6.92-2.74-11.11-2.74c-4.29,0-8.09,0.93-11.39,2.78c-3.3,1.85-5.86,4.5-7.69,7.93c-1.83,3.44-2.74,7.43-2.74,12
	c0,4.56,0.94,8.57,2.82,12.04c1.88,3.46,4.47,6.13,7.77,8.01c3.3,1.88,7.04,2.82,11.23,2.82c5.26,0,9.66-1.33,13.2-3.99
	c3.54-2.66,5.9-6.1,7.08-10.35h-7.89c-0.86,2.47-2.35,4.44-4.47,5.92c-2.12,1.48-4.76,2.21-7.93,2.21c-3.86,0-7.15-1.22-9.86-3.66
	c-2.71-2.44-4.2-5.84-4.47-10.18h35.26C787.6,206.12,787.68,204.65,787.68,203.25 M707.53,190.05v-7.17h-7.33V227h7.33v-23.99
	c0-8.91,4.11-13.36,12.32-13.36h1.93v-7.57c-3.44,0-6.35,0.7-8.74,2.09C710.66,185.57,708.82,187.52,707.53,190.05 M680.94,182.88
	v24.23c0,4.62-1.13,8.13-3.38,10.55c-2.25,2.42-5.34,3.62-9.26,3.62c-3.81,0-6.82-1.17-9.02-3.5c-2.2-2.33-3.3-5.68-3.3-10.02
	v-24.88h-7.25v25.84c0,4.08,0.79,7.54,2.38,10.39c1.58,2.85,3.74,4.98,6.48,6.4c2.74,1.42,5.82,2.13,9.26,2.13
	c3.01,0,5.76-0.63,8.25-1.89c2.5-1.26,4.44-3.02,5.84-5.27V227h7.33v-44.12H680.94z M617.2,221.28c-2.63,0-5.05-0.6-7.25-1.81
	c-2.2-1.21-3.96-3.05-5.27-5.51c-1.32-2.47-1.97-5.5-1.97-9.1c0-3.54,0.67-6.55,2.01-9.02c1.34-2.47,3.13-4.31,5.35-5.51
	c2.23-1.21,4.68-1.81,7.37-1.81c2.63,0,5.07,0.6,7.33,1.81c2.25,1.21,4.08,3.05,5.47,5.51c1.39,2.47,2.09,5.47,2.09,9.02
	c0,3.54-0.71,6.55-2.13,9.02c-1.42,2.47-3.29,4.32-5.6,5.56C622.3,220.67,619.83,221.28,617.2,221.28 M617.2,227.72
	c4.19,0,8-0.94,11.43-2.82c3.43-1.88,6.16-4.55,8.17-8.01c2.01-3.46,3.02-7.47,3.02-12.04c0-4.56-0.98-8.56-2.94-12
	c-1.96-3.43-4.63-6.08-8.01-7.93c-3.38-1.85-7.17-2.78-11.35-2.78s-7.97,0.93-11.35,2.78c-3.38,1.85-6.05,4.51-8.01,7.97
	c-1.96,3.46-2.94,7.45-2.94,11.96c0,4.56,0.95,8.57,2.86,12.04c1.9,3.46,4.53,6.13,7.89,8.01
	C609.32,226.79,613.07,227.72,617.2,227.72"/>
</svg>
