<?xml version="1.0" encoding="utf-8"?>
<!-- Generator: Adobe Illustrator 26.1.0, SVG Export Plug-In . SVG Version: 6.00 Build 0)  -->
<svg version="1.1" id="Laag_1" xmlns="http://www.w3.org/2000/svg" xmlns:xlink="http://www.w3.org/1999/xlink" x="0px" y="0px"
	 viewBox="0 0 1133.86 263" style="enable-background:new 0 0 1133.86 263;" xml:space="preserve">
<style type="text/css">
	.st0{fill:#FFFFFF;}
	.st1{fill:#00FF00;}
</style>
<path class="st0" d="M274.02,185.75V79.38h-25.26v58.05c0,7.33-1.01,13.36-3,17.92c-3.97,8.72-11.36,13.14-21.98,13.14
	c-8.46,0-14.26-3.22-17.23-9.56c-1.6-3.42-2.4-8.48-2.4-15.02V79.38h-25.57v64.53c0,12.26,1.53,21.61,4.55,27.78
	c5.27,10.95,15.73,16.49,31.11,16.49c5.4,0,10.15-0.71,14.13-2.11c3.94-1.39,8.12-4.06,12.42-7.92c1.34-1.15,2.5-2.51,3.47-4.03
	c1.14-1.78,1.82-2.81,2.15-3.21l3.57-4.47v19.31H274.02z"/>
<path class="st0" d="M356.56,102.01c0.91,0,2.07,0.03,3.54,0.1c0.85,0.04,1.78,0.11,2.76,0.19V76.84c-0.29-0.02-0.51-0.04-0.67-0.05
	c-0.31-0.03-0.71-0.04-1.18-0.04c-8.12,0-14.78,2.13-19.78,6.32c-3.13,2.55-6.9,7.45-11.21,14.59l-3.72,6.14V79.38h-23.54v106.37
	h25.05V135c0-9.13,1.21-16.05,3.57-20.58C335.73,106.18,344.2,102.01,356.56,102.01"/>
<rect x="387.19" y="79.38" class="st0" width="25.26" height="106.37"/>
<path class="st0" d="M518.71,147.34c-5.62,11.19-17.26,18.39-29.79,18.39c-18.38,0-33.33-14.95-33.33-33.33s14.95-33.33,33.33-33.33
	c12.54,0,24.17,7.2,29.79,18.39l19.98-11.54c-9.82-18.46-28.84-29.9-49.78-29.9c-31.08,0-56.37,25.29-56.37,56.38
	s25.29,56.38,56.37,56.38c20.94,0,39.96-11.44,49.78-29.9L518.71,147.34z"/>
<path class="st0" d="M606.53,164.98c-17.97,0-32.58-14.61-32.58-32.58c0-17.96,14.61-32.58,32.58-32.58s32.58,14.62,32.58,32.58
	C639.11,150.36,624.49,164.98,606.53,164.98 M606.53,76.28c-30.95,0-56.12,25.18-56.12,56.12s25.18,56.13,56.12,56.13
	s56.12-25.18,56.12-56.13S637.47,76.28,606.53,76.28"/>
<path class="st0" d="M790.39,97.45c7.67,0,13.04,2.96,15.97,8.8c1.48,2.97,2.23,6.74,2.23,11.22v68.27h25.57l0.19-67.57
	c0-6.99-0.33-12.35-0.98-15.94c-1.01-5.24-2.99-9.71-5.87-13.28c-3.61-4.43-7.66-7.57-12.04-9.32c-4.47-1.79-9.06-2.69-13.63-2.69
	c-6.94,0-13.3,1.45-18.92,4.33c-5.23,2.84-9.7,7.38-13.28,13.52l-2.07,3.54l-1.53-3.81c-2.02-5.06-5.01-9.24-8.89-12.43
	c-4.78-3.41-11.25-5.14-19.22-5.14c-8.42,0-15.33,2.04-20.55,6.06c-2.96,2.27-6.21,6.21-9.65,11.73l-3.7,5.94v-21.1h-24.05v106.17
	h25.26v-64.42c0-6.3,0.86-11.18,2.56-14.49c3.2-6.02,9.39-9.08,18.38-9.08c7.91,0,13.33,3.09,16.1,9.17
	c1.49,3.27,2.21,8.21,2.21,15.11v63.72h25.06v-63.72c0-5.19,0.84-9.72,2.5-13.48C775.44,101.19,781.6,97.45,790.39,97.45"/>
<path class="st0" d="M108.54,75.21c-33.17,0-55.46,23.01-55.46,57.26c0,33.83,22.81,57.46,55.46,57.46c7.38,0,14.41-1.25,20.8-3.62
	c12.01-4.45,21.71-11.64,27.02-23.3l0.83-1.83h-23.51h-0.43c-6.11,7.3-14.19,8.9-24.71,8.9c-16.7,0-28.87-10.74-31.02-27.35
	l-0.17-1.34h84.4l0.11-0.69c0.5-3.36,0.73-6.8,0.73-10.83C162.58,97.68,140.36,75.21,108.54,75.21z M77.56,122.34l0.25-1.41
	c2.86-15.72,14.52-25.87,29.72-25.87c16.83,0,29.38,10.69,30.52,26l0.09,1.28H77.56z"/>
<path class="st1" d="M921.35,66.49h51.96V36.83h-55.52c-14.42,0-26.11,11.69-26.11,26.11v55.52h29.66V66.49z"/>
<path class="st1" d="M1007.96,131.81c0,11.76-9.53,21.3-21.3,21.3c-11.76,0-21.3-9.53-21.3-21.3c0-11.76,9.54-21.3,21.3-21.3
	C998.43,110.51,1007.96,120.05,1007.96,131.81"/>
<path class="st1" d="M1055.54,36.83h-55.52v29.66h51.96v51.96h29.66V62.94C1081.65,48.51,1069.96,36.83,1055.54,36.83"/>
<path class="st1" d="M1051.98,145.17v51.96h-51.96v29.66h55.52c14.42,0,26.11-11.69,26.11-26.11v-55.52H1051.98z"/>
<path class="st1" d="M921.35,197.13v-51.96h-29.66v55.52c0,14.42,11.69,26.11,26.11,26.11h55.52v-29.66H921.35z"/>
<path class="st0" d="M414.02,50.9c0,7.84-6.36,14.2-14.2,14.2c-7.85,0-14.21-6.36-14.21-14.2c0-7.85,6.36-14.2,14.21-14.2
	C407.66,36.7,414.02,43.05,414.02,50.9"/>
</svg>
